<?xml version="1.0" encoding="UTF-8"?>
<svg width="19px" height="16px" viewBox="0 0 19 16" version="1.1" xmlns="http://www.w3.org/2000/svg" xmlns:xlink="http://www.w3.org/1999/xlink">
    <!-- Generator: Sketch 41.2 (35397) - http://www.bohemiancoding.com/sketch -->
    <title>lnr-upload</title>
    <desc>Created with Sketch.</desc>
    <defs></defs>
    <g id="Page-1" stroke="none" stroke-width="1" fill="none" fill-rule="evenodd">
        <g id="lnr-upload" fill="#AAAAAA">
            <path d="M17.5,16 L1.5,16 C0.673,16 0,15.327 0,14.5 L0,12.5 C0,12.224 0.224,12 0.5,12 C0.776,12 1,12.224 1,12.5 L1,14.5 C1,14.776 1.224,15 1.5,15 L17.5,15 C17.776,15 18,14.776 18,14.5 L18,12.5 C18,12.224 18.224,12 18.5,12 C18.776,12 19,12.224 19,12.5 L19,14.5 C19,15.327 18.327,16 17.5,16 Z" id="Shape"></path>
            <path d="M14.854,5.646 L9.854,0.646 C9.659,0.451 9.342,0.451 9.147,0.646 L4.147,5.646 C3.952,5.841 3.952,6.158 4.147,6.353 C4.342,6.548 4.659,6.548 4.854,6.353 L9,2.207 L9,12.5 C9,12.776 9.224,13 9.5,13 C9.776,13 10,12.776 10,12.5 L10,2.207 L14.146,6.353 C14.244,6.451 14.372,6.499 14.5,6.499 C14.628,6.499 14.756,6.45 14.854,6.353 C15.049,6.158 15.049,5.841 14.854,5.646 L14.854,5.646 Z" id="Shape"></path>
        </g>
    </g>
</svg>