<?xml version="1.0" encoding="UTF-8"?>
<svg width="34px" height="34px" viewBox="0 0 34 34" version="1.1" xmlns="http://www.w3.org/2000/svg" xmlns:xlink="http://www.w3.org/1999/xlink">
    <!-- Generator: Sketch Beta 43 (38998) - http://www.bohemiancoding.com/sketch -->
    <title>Group 2</title>
    <desc>Created with Sketch Beta.</desc>
    <defs>
        <rect id="path-1" x="0" y="0" width="32" height="32" rx="3"></rect>
    </defs>
    <g id="Page-1" stroke="none" stroke-width="1" fill="none" fill-rule="evenodd">
        <g id="Group-2" transform="translate(1.000000, 1.000000)">
            <g id="Rectangle-2">
                <use fill-opacity="0.9" fill="#FFFFFF" fill-rule="evenodd" xlink:href="#path-1"></use>
                <rect stroke-opacity="0.1" stroke="#000000" stroke-width="1" x="-0.5" y="-0.5" width="33" height="33" rx="3"></rect>
            </g>
            <g id="foreign" transform="translate(7.000000, 7.000000)" fill-rule="nonzero" fill="#888888">
                <path d="M16.6876033,0.323986816 L8.83302771,0.323986816 C8.29079022,0.323986816 7.85119522,0.763580812 7.85119522,1.30581705 C7.85119522,1.84805329 8.29079022,2.28764729 8.83302771,2.28764729 L14.3172918,2.28764729 L5.41154262,11.1934154 C5.02818371,11.5767735 5.02818371,12.1984488 5.41154262,12.5818912 C5.60320098,12.7735491 5.85447045,12.8694414 6.10573992,12.8694414 C6.35700939,12.8694414 6.60832104,12.7735491 6.79993721,12.581849 L15.705813,3.67612306 L15.705813,9.16037456 C15.705813,9.7026108 16.145408,10.1422048 16.6876455,10.1422048 C17.229883,10.1422048 17.669478,9.7026108 17.669478,9.16037456 L17.669478,1.30581705 C17.6694358,0.763580812 17.2298408,0.323986816 16.6876033,0.323986816 Z" id="Shape"></path>
                <path d="M16.6908575,13.2181678 C16.1486228,13.2181678 15.70903,13.6577616 15.70903,14.1999977 L15.70903,16.0363824 L1.96361293,16.0363824 L1.96361293,2.29089034 L3.79997656,2.29089034 C4.34221132,2.29089034 4.78180412,1.8512965 4.78180412,1.30906044 C4.78180412,0.766824385 4.34221132,0.327272727 3.79997656,0.327272727 L0.981827557,0.327272727 C0.439592796,0.327272727 0,0.766866573 0,1.30910263 L0,17.0182123 C0,17.5604062 0.439592796,18 0.981827557,18 L16.6908997,18 C17.2331345,18 17.6727273,17.5604062 17.6727273,17.0181701 L17.6727273,14.1999977 C17.6726851,13.6577616 17.2330923,13.2181678 16.6908575,13.2181678 Z" id="Shape"></path>
            </g>
            <g id="Group-3" transform="translate(6.000000, 6.000000)"></g>
        </g>
    </g>
</svg>